<svg width="40" height="40" viewBox="0 0 40 40" fill="none" xmlns="http://www.w3.org/2000/svg">
<circle cx="20" cy="20" r="20" fill="#FECA49"/>
<path d="M30.275 9.72253C26.825 6.50216 23.375 8.5724 22.11 9.72253L9.46 22.374L9 31L17.625 30.5399L30.275 17.8885C32.575 15.5882 32.575 11.9078 30.275 9.72253ZM28.665 11.3327C29.7 12.3678 29.93 13.978 29.355 15.2432L24.755 10.6426C26.02 10.0676 27.63 10.2976 28.665 11.3327ZM24.64 13.748L13.945 24.4442L12.335 22.8341L23.03 12.1378L24.64 13.748ZM15.555 26.1694L26.25 15.3582L27.86 16.9684L17.165 27.6646L15.555 26.1694ZM11.645 25.4794L14.52 28.3547L11.415 28.5847L11.645 25.4794Z" fill="#080D10"/>
</svg>
