<svg width="60" height="61" viewBox="0 0 60 61" fill="none" xmlns="http://www.w3.org/2000/svg">
<mask id="mask0_68_29" style="mask-type:alpha" maskUnits="userSpaceOnUse" x="0" y="0" width="60" height="61">
<rect y="0.5" width="60" height="60" fill="#D9D9D9"/>
</mask>
<g mask="url(#mask0_68_29)">
<path d="M29.9999 55.5C24.9166 55.5 20.3605 54.149 16.3318 51.4469C12.303 48.7452 9.27886 45.1106 7.25928 40.5431V48.7694H4.75928V36.2694H17.2593V38.7694H9.2449C10.8603 43.0515 13.5678 46.4937 17.3674 49.0962C21.1674 51.6987 25.3782 53 29.9999 53C32.9966 53 35.8116 52.4623 38.4449 51.3869C41.0778 50.3115 43.3966 48.8275 45.4012 46.935C47.4062 45.0425 49.0345 42.7958 50.2862 40.195C51.5378 37.5938 52.2597 34.7787 52.4518 31.75H54.9518C54.7914 35.0608 54.0245 38.1585 52.6512 41.0431C51.2778 43.9277 49.4774 46.4438 47.2499 48.5913C45.0224 50.7388 42.4262 52.4271 39.4612 53.6562C36.4966 54.8854 33.3428 55.5 29.9999 55.5ZM28.7112 47.0387V43.9806C27.0095 43.5865 25.5601 42.911 24.363 41.9544C23.1659 40.9977 22.2116 39.6635 21.4999 37.9519L23.7018 37C24.3943 38.5479 25.3197 39.741 26.478 40.5794C27.6368 41.4173 28.9357 41.8363 30.3749 41.8363C31.8462 41.8363 33.2237 41.4494 34.5074 40.6756C35.7907 39.9015 36.4324 38.6346 36.4324 36.875C36.4324 35.4742 35.9701 34.3748 35.0455 33.5769C34.1209 32.779 32.3141 31.8848 29.6249 30.8944C26.9424 29.9231 25.0362 28.8975 23.9062 27.8175C22.7762 26.7371 22.2112 25.2979 22.2112 23.5C22.2112 21.9842 22.7809 20.5844 23.9205 19.3006C25.0601 18.0169 26.6987 17.2148 28.8362 16.8944V13.9613H31.2887V16.8944C32.5962 16.9873 33.8164 17.4392 34.9493 18.25C36.0822 19.0608 36.942 20.0673 37.5287 21.2694L35.3555 22.125C34.8301 21.2308 34.1443 20.4929 33.298 19.9113C32.4518 19.3296 31.3941 19.0388 30.1249 19.0388C28.4741 19.0388 27.1512 19.4633 26.1562 20.3125C25.1612 21.1617 24.6637 22.2242 24.6637 23.5C24.6637 24.7758 25.0466 25.7581 25.8124 26.4469C26.5782 27.136 28.3395 27.9615 31.0962 28.9231C34.0962 30.0065 36.1282 31.165 37.1924 32.3988C38.2566 33.6329 38.7887 35.125 38.7887 36.875C38.7887 38.0513 38.5562 39.0817 38.0912 39.9662C37.6266 40.8508 37.0264 41.584 36.2905 42.1656C35.5551 42.7477 34.737 43.1965 33.8362 43.5119C32.9357 43.8277 32.0449 44.0256 31.1637 44.1056V47.0387H28.7112ZM5.04803 29.25C5.27219 25.7787 6.08699 22.5929 7.4924 19.6925C8.89824 16.7917 10.7309 14.2835 12.9905 12.1681C15.2501 10.0527 17.8382 8.4125 20.7549 7.2475C23.6716 6.0825 26.7532 5.5 29.9999 5.5C34.987 5.5 39.543 6.85896 43.668 9.57687C47.793 12.2948 50.8172 15.9854 52.7405 20.6488V12.2306H55.2405V24.7306H42.7405V22.2306H50.7549C49.2357 18.0769 46.5682 14.6667 42.7524 12C38.9366 9.33333 34.6857 8 29.9999 8C27.1312 8 24.3884 8.52167 21.7718 9.565C19.1547 10.6083 16.8276 12.0602 14.7905 13.9206C12.7539 15.781 11.0857 18.0119 9.78615 20.6131C8.48615 23.214 7.74011 26.0929 7.54803 29.25H5.04803Z" fill="white"/>
</g>
</svg>
