<svg width="40" height="40" viewBox="0 0 40 40" fill="none" xmlns="http://www.w3.org/2000/svg">
<circle cx="20" cy="20" r="20" fill="#080D10"/>
<path d="M20 0C8.97167 0 0 9.00092 0 20.0652C1.005 46.6483 39 46.6416 40 20.0652C40 9.00092 31.0283 0 20 0ZM21.6667 28.4257V30.0978C21.6583 32.2849 18.3417 32.2833 18.3333 30.0978V28.4257H17.8867C16.1083 28.4257 14.4483 27.4659 13.5567 25.9192C13.095 25.1183 13.3683 24.0966 14.1633 23.6351C14.9617 23.1686 15.9817 23.4462 16.44 24.2438C16.7383 24.7621 17.2917 25.0815 17.885 25.0815H21.665C23.3267 25.1902 24.07 22.4898 22.2583 22.1386L17.19 21.2909C11.3533 20.2057 12.61 11.6713 18.3317 11.7047V10.0326C18.3417 7.8455 21.6567 7.84717 21.665 10.0326V11.7047H22.1117C23.89 11.7047 25.55 12.6662 26.4417 14.2129C26.9033 15.0121 26.63 16.0338 25.835 16.4969C25.035 16.9601 24.0167 16.6859 23.5583 15.8866C23.26 15.37 22.7067 15.0506 22.1133 15.0506H18.3333C16.6717 14.9419 15.93 17.6423 17.74 17.9935L22.8083 18.8412C28.645 19.9264 27.3883 28.4592 21.6667 28.4257Z" fill="#FECA49"/>
</svg>
