<svg width="60" height="61" viewBox="0 0 60 61" fill="none" xmlns="http://www.w3.org/2000/svg">
<mask id="mask0_68_35" style="mask-type:alpha" maskUnits="userSpaceOnUse" x="0" y="0" width="60" height="61">
<rect y="0.5" width="60" height="60" fill="#D9D9D9"/>
</mask>
<g mask="url(#mask0_68_35)">
<path d="M33.7498 31.5575C32.3394 31.5575 31.1536 31.0769 30.1923 30.1156C29.2307 29.154 28.7498 27.9679 28.7498 26.5575C28.7498 25.1475 29.2307 23.9617 30.1923 23C31.1536 22.0383 32.3394 21.5575 33.7498 21.5575C35.1603 21.5575 36.3461 22.0383 37.3073 23C38.269 23.9617 38.7498 25.1475 38.7498 26.5575C38.7498 27.9679 38.269 29.154 37.3073 30.1156C36.3461 31.0769 35.1603 31.5575 33.7498 31.5575ZM18.2692 39.5387C17.1584 39.5387 16.2076 39.1431 15.4167 38.3519C14.6259 37.561 14.2305 36.6104 14.2305 35.5V17.6156C14.2305 16.5048 14.6259 15.554 15.4167 14.7631C16.2076 13.9723 17.1584 13.5769 18.2692 13.5769H49.2305C50.3413 13.5769 51.2921 13.9723 52.083 14.7631C52.8738 15.554 53.2692 16.5048 53.2692 17.6156V35.5C53.2692 36.6104 52.8738 37.561 52.083 38.3519C51.2921 39.1431 50.3413 39.5387 49.2305 39.5387H18.2692ZM20.7692 37.0387H46.7305C46.7305 35.92 47.1259 34.9671 47.9167 34.18C48.7076 33.3933 49.6584 33 50.7692 33V20.1156C49.6505 20.1156 48.6978 19.7202 47.9111 18.9294C47.124 18.1381 46.7305 17.1873 46.7305 16.0769H20.7692C20.7692 17.1956 20.3738 18.1483 19.583 18.935C18.7921 19.7221 17.8413 20.1156 16.7305 20.1156V33C17.8492 33 18.8019 33.3954 19.5886 34.1863C20.3757 34.9771 20.7692 35.9279 20.7692 37.0387ZM45.8655 47.0387H10.7692C9.65839 47.0387 8.70755 46.6431 7.91672 45.8519C7.12589 45.061 6.73047 44.1104 6.73047 43V20.9806H9.23047V43C9.23047 43.3846 9.39068 43.7371 9.71109 44.0575C10.0319 44.3783 10.3846 44.5387 10.7692 44.5387H45.8655V47.0387ZM18.2692 37.0387H16.7305V16.0769H18.2692C17.8526 16.0769 17.4919 16.2292 17.1873 16.5337C16.8828 16.8383 16.7305 17.199 16.7305 17.6156V35.5C16.7305 35.9167 16.8828 36.2773 17.1873 36.5819C17.4919 36.8865 17.8526 37.0387 18.2692 37.0387Z" fill="white"/>
</g>
</svg>
