<svg width="45" height="45" viewBox="0 0 45 45" fill="none" xmlns="http://www.w3.org/2000/svg">
<circle cx="22.6653" cy="22.8838" r="22.095" fill="#FECA49"/>
<g clip-path="url(#clip0_152_111)">
<path d="M22.7603 15.1547C25.1633 15.1547 25.4483 15.1637 26.397 15.2072C27.378 15.2522 28.3883 15.4757 29.103 16.1905C29.8245 16.912 30.0413 17.9125 30.0863 18.8965C30.1298 19.8452 30.1388 20.1302 30.1388 22.5332C30.1388 24.9362 30.1298 25.2212 30.0863 26.17C30.042 27.1457 29.8133 28.1657 29.103 28.876C28.3815 29.5975 27.3818 29.8142 26.397 29.8592C25.4483 29.9027 25.1633 29.9117 22.7603 29.9117C20.3573 29.9117 20.0723 29.9027 19.1235 29.8592C18.1553 29.815 17.1218 29.581 16.4175 28.876C15.6998 28.1582 15.4793 27.148 15.4343 26.17C15.3908 25.2212 15.3818 24.9362 15.3818 22.5332C15.3818 20.1302 15.3908 19.8452 15.4343 18.8965C15.4785 17.9245 15.7095 16.8985 16.4175 16.1905C17.1375 15.4705 18.1418 15.2522 19.1235 15.2072C20.0723 15.1637 20.3573 15.1547 22.7603 15.1547ZM22.7603 13.5332C20.316 13.5332 20.0093 13.5437 19.0493 13.5872C17.658 13.651 16.2765 14.038 15.2708 15.0437C14.2613 16.0532 13.878 17.4317 13.8143 18.8222C13.7708 19.7822 13.7603 20.089 13.7603 22.5332C13.7603 24.9775 13.7708 25.2842 13.8143 26.2442C13.878 27.634 14.2665 29.0192 15.2708 30.0227C16.2795 31.0315 17.6603 31.4155 19.0493 31.4792C20.0093 31.5227 20.316 31.5332 22.7603 31.5332C25.2045 31.5332 25.5113 31.5227 26.4713 31.4792C27.8618 31.4155 29.2448 31.0277 30.2498 30.0227C31.26 29.0125 31.6425 27.6347 31.7063 26.2442C31.7498 25.2842 31.7603 24.9775 31.7603 22.5332C31.7603 20.089 31.7498 19.7822 31.7063 18.8222C31.6425 17.431 31.2548 16.0487 30.2498 15.0437C29.2425 14.0365 27.858 13.6502 26.4713 13.5872C25.5113 13.5437 25.2045 13.5332 22.7603 13.5332Z" fill="black"/>
<path d="M22.7602 17.9119C20.2079 17.9119 18.1387 19.9811 18.1387 22.5334C18.1387 25.0856 20.2079 27.1549 22.7602 27.1549C25.3124 27.1549 27.3817 25.0856 27.3817 22.5334C27.3817 19.9811 25.3124 17.9119 22.7602 17.9119ZM22.7602 25.5334C21.1034 25.5334 19.7602 24.1901 19.7602 22.5334C19.7602 20.8766 21.1034 19.5334 22.7602 19.5334C24.4169 19.5334 25.7602 20.8766 25.7602 22.5334C25.7602 24.1901 24.4169 25.5334 22.7602 25.5334Z" fill="black"/>
<path d="M27.5649 18.8087C28.1613 18.8087 28.6449 18.3251 28.6449 17.7287C28.6449 17.1322 28.1613 16.6487 27.5649 16.6487C26.9684 16.6487 26.4849 17.1322 26.4849 17.7287C26.4849 18.3251 26.9684 18.8087 27.5649 18.8087Z" fill="black"/>
</g>
<defs>
<clipPath id="clip0_152_111">
<rect width="18" height="18" fill="white" transform="translate(13.7603 13.5332)"/>
</clipPath>
</defs>
</svg>
