<svg width="152" height="24" viewBox="0 0 152 24" fill="none" xmlns="http://www.w3.org/2000/svg">
<mask id="mask0_15_601" style="mask-type:alpha" maskUnits="userSpaceOnUse" x="0" y="0" width="24" height="24">
<rect width="24" height="24" fill="#D9D9D9"/>
</mask>
<g mask="url(#mask0_15_601)">
<path d="M7.625 6.4L10.425 2.775C10.625 2.50833 10.8625 2.3125 11.1375 2.1875C11.4125 2.0625 11.7 2 12 2C12.3 2 12.5875 2.0625 12.8625 2.1875C13.1375 2.3125 13.375 2.50833 13.575 2.775L16.375 6.4L20.625 7.825C21.0583 7.95833 21.4 8.20417 21.65 8.5625C21.9 8.92083 22.025 9.31667 22.025 9.75C22.025 9.95 21.9958 10.15 21.9375 10.35C21.8792 10.55 21.7833 10.7417 21.65 10.925L18.9 14.825L19 18.925C19.0167 19.5083 18.825 20 18.425 20.4C18.025 20.8 17.5583 21 17.025 21C16.9917 21 16.8083 20.975 16.475 20.925L12 19.675L7.525 20.925C7.44167 20.9583 7.35 20.9792 7.25 20.9875C7.15 20.9958 7.05833 21 6.975 21C6.44167 21 5.975 20.8 5.575 20.4C5.175 20 4.98333 19.5083 5 18.925L5.1 14.8L2.375 10.925C2.24167 10.7417 2.14583 10.55 2.0875 10.35C2.02917 10.15 2 9.95 2 9.75C2 9.33333 2.12083 8.94583 2.3625 8.5875C2.60417 8.22917 2.94167 7.975 3.375 7.825L7.625 6.4Z" fill="#FECA49"/>
</g>
<mask id="mask1_15_601" style="mask-type:alpha" maskUnits="userSpaceOnUse" x="32" y="0" width="24" height="24">
<rect x="32" width="24" height="24" fill="#D9D9D9"/>
</mask>
<g mask="url(#mask1_15_601)">
<path d="M39.625 6.4L42.425 2.775C42.625 2.50833 42.8625 2.3125 43.1375 2.1875C43.4125 2.0625 43.7 2 44 2C44.3 2 44.5875 2.0625 44.8625 2.1875C45.1375 2.3125 45.375 2.50833 45.575 2.775L48.375 6.4L52.625 7.825C53.0583 7.95833 53.4 8.20417 53.65 8.5625C53.9 8.92083 54.025 9.31667 54.025 9.75C54.025 9.95 53.9958 10.15 53.9375 10.35C53.8792 10.55 53.7833 10.7417 53.65 10.925L50.9 14.825L51 18.925C51.0167 19.5083 50.825 20 50.425 20.4C50.025 20.8 49.5583 21 49.025 21C48.9917 21 48.8083 20.975 48.475 20.925L44 19.675L39.525 20.925C39.4417 20.9583 39.35 20.9792 39.25 20.9875C39.15 20.9958 39.0583 21 38.975 21C38.4417 21 37.975 20.8 37.575 20.4C37.175 20 36.9833 19.5083 37 18.925L37.1 14.8L34.375 10.925C34.2417 10.7417 34.1458 10.55 34.0875 10.35C34.0292 10.15 34 9.95 34 9.75C34 9.33333 34.1208 8.94583 34.3625 8.5875C34.6042 8.22917 34.9417 7.975 35.375 7.825L39.625 6.4Z" fill="#FECA49"/>
</g>
<mask id="mask2_15_601" style="mask-type:alpha" maskUnits="userSpaceOnUse" x="64" y="0" width="24" height="24">
<rect x="64" width="24" height="24" fill="#D9D9D9"/>
</mask>
<g mask="url(#mask2_15_601)">
<path d="M71.625 6.4L74.425 2.775C74.625 2.50833 74.8625 2.3125 75.1375 2.1875C75.4125 2.0625 75.7 2 76 2C76.3 2 76.5875 2.0625 76.8625 2.1875C77.1375 2.3125 77.375 2.50833 77.575 2.775L80.375 6.4L84.625 7.825C85.0583 7.95833 85.4 8.20417 85.65 8.5625C85.9 8.92083 86.025 9.31667 86.025 9.75C86.025 9.95 85.9958 10.15 85.9375 10.35C85.8792 10.55 85.7833 10.7417 85.65 10.925L82.9 14.825L83 18.925C83.0167 19.5083 82.825 20 82.425 20.4C82.025 20.8 81.5583 21 81.025 21C80.9917 21 80.8083 20.975 80.475 20.925L76 19.675L71.525 20.925C71.4417 20.9583 71.35 20.9792 71.25 20.9875C71.15 20.9958 71.0583 21 70.975 21C70.4417 21 69.975 20.8 69.575 20.4C69.175 20 68.9833 19.5083 69 18.925L69.1 14.8L66.375 10.925C66.2417 10.7417 66.1458 10.55 66.0875 10.35C66.0292 10.15 66 9.95 66 9.75C66 9.33333 66.1208 8.94583 66.3625 8.5875C66.6042 8.22917 66.9417 7.975 67.375 7.825L71.625 6.4Z" fill="#FECA49"/>
</g>
<mask id="mask3_15_601" style="mask-type:alpha" maskUnits="userSpaceOnUse" x="96" y="0" width="24" height="24">
<rect x="96" width="24" height="24" fill="#D9D9D9"/>
</mask>
<g mask="url(#mask3_15_601)">
<path d="M103.625 6.4L106.425 2.775C106.625 2.50833 106.863 2.3125 107.137 2.1875C107.412 2.0625 107.7 2 108 2C108.3 2 108.588 2.0625 108.863 2.1875C109.137 2.3125 109.375 2.50833 109.575 2.775L112.375 6.4L116.625 7.825C117.058 7.95833 117.4 8.20417 117.65 8.5625C117.9 8.92083 118.025 9.31667 118.025 9.75C118.025 9.95 117.996 10.15 117.938 10.35C117.879 10.55 117.783 10.7417 117.65 10.925L114.9 14.825L115 18.925C115.017 19.5083 114.825 20 114.425 20.4C114.025 20.8 113.558 21 113.025 21C112.992 21 112.808 20.975 112.475 20.925L108 19.675L103.525 20.925C103.442 20.9583 103.35 20.9792 103.25 20.9875C103.15 20.9958 103.058 21 102.975 21C102.442 21 101.975 20.8 101.575 20.4C101.175 20 100.983 19.5083 101 18.925L101.1 14.8L98.375 10.925C98.2417 10.7417 98.1458 10.55 98.0875 10.35C98.0292 10.15 98 9.95 98 9.75C98 9.33333 98.1208 8.94583 98.3625 8.5875C98.6042 8.22917 98.9417 7.975 99.375 7.825L103.625 6.4Z" fill="#FECA49"/>
</g>
<mask id="mask4_15_601" style="mask-type:alpha" maskUnits="userSpaceOnUse" x="128" y="0" width="24" height="24">
<rect x="128" width="24" height="24" fill="#D9D9D9"/>
</mask>
<g mask="url(#mask4_15_601)">
<path d="M135.625 6.4L138.425 2.775C138.625 2.50833 138.863 2.3125 139.137 2.1875C139.412 2.0625 139.7 2 140 2C140.3 2 140.588 2.0625 140.863 2.1875C141.137 2.3125 141.375 2.50833 141.575 2.775L144.375 6.4L148.625 7.825C149.058 7.95833 149.4 8.20417 149.65 8.5625C149.9 8.92083 150.025 9.31667 150.025 9.75C150.025 9.95 149.996 10.15 149.938 10.35C149.879 10.55 149.783 10.7417 149.65 10.925L146.9 14.825L147 18.925C147.017 19.5083 146.825 20 146.425 20.4C146.025 20.8 145.558 21 145.025 21C144.992 21 144.808 20.975 144.475 20.925L140 19.675L135.525 20.925C135.442 20.9583 135.35 20.9792 135.25 20.9875C135.15 20.9958 135.058 21 134.975 21C134.442 21 133.975 20.8 133.575 20.4C133.175 20 132.983 19.5083 133 18.925L133.1 14.8L130.375 10.925C130.242 10.7417 130.146 10.55 130.087 10.35C130.029 10.15 130 9.95 130 9.75C130 9.33333 130.121 8.94583 130.363 8.5875C130.604 8.22917 130.942 7.975 131.375 7.825L135.625 6.4Z" fill="#FECA49"/>
</g>
</svg>
