<svg width="60" height="60" viewBox="0 0 60 60" fill="none" xmlns="http://www.w3.org/2000/svg">
<mask id="mask0_68_23" style="mask-type:alpha" maskUnits="userSpaceOnUse" x="0" y="0" width="60" height="60">
<rect width="60" height="60" fill="#D9D9D9"/>
</mask>
<g mask="url(#mask0_68_23)">
<path d="M28.7161 51.25V46.1637C26.572 45.8879 24.7299 45.1458 23.1899 43.9375C21.6499 42.7292 20.5049 41.0577 19.7549 38.9231L22.0718 37.9137C22.793 39.7854 23.7843 41.226 25.0455 42.2356C26.3068 43.2452 28.0176 43.75 30.178 43.75C32.0784 43.75 33.8147 43.2765 35.3868 42.3294C36.9588 41.3823 37.7449 39.8558 37.7449 37.75C37.7449 35.9713 37.1663 34.5425 36.0093 33.4638C34.8522 32.3854 32.6872 31.3367 29.5143 30.3175C26.2834 29.2883 24.0095 28.1127 22.6924 26.7906C21.3749 25.4685 20.7161 23.7467 20.7161 21.625C20.7161 19.3013 21.6072 17.4454 23.3893 16.0575C25.1713 14.67 26.947 13.92 28.7161 13.8075V8.75H31.2161V13.8075C32.947 13.9808 34.4334 14.4608 35.6755 15.2475C36.9176 16.0346 37.9472 17.154 38.7643 18.6056L36.543 19.7406C35.9468 18.6635 35.1263 17.7917 34.0818 17.125C33.0368 16.4583 31.7065 16.125 30.0911 16.125C28.1615 16.125 26.5334 16.6354 25.2068 17.6562C23.8797 18.6771 23.2161 20 23.2161 21.625C23.2161 23.1604 23.7611 24.404 24.8511 25.3556C25.9407 26.3077 28.1232 27.3013 31.3986 28.3363C34.4341 29.2979 36.6674 30.5327 38.0986 32.0406C39.5295 33.549 40.2449 35.4425 40.2449 37.7213C40.2449 40.2308 39.362 42.2244 37.5961 43.7019C35.8299 45.1794 33.7032 46.0096 31.2161 46.1925V51.25H28.7161Z" fill="white"/>
</g>
</svg>
